<svg xmlns="http://www.w3.org/2000/svg" xmlns:xlink="http://www.w3.org/1999/xlink" viewBox="0 0 288 288">
  <g id="Bosque_Logo">
    <rect width="100%" height="100%" fill="#008a00"/>
    <g id="BSQ_Text" transform="translate(-57 -7.39)">
      <path id="B" d="M22.379-20.64l.21-15.283,12.8.075c.817,0,4.884.4,6.2,1.644a7.906,7.906,0,0,1,2.7,5.127c.032,1.942.037,3.76-1.721,5.752S38.5-20.64,35.391-20.64ZM4.968-51.408v83.8H35.391s11.282.288,18.3-3.859,9-7.464,11.127-12.78S66.7,7.436,66.243,2.683A19.043,19.043,0,0,0,59.6-9.563c-3.267-2.559-4.941-3.337-9.821-4.742,3.658-1.293,7.065-3.445,8.876-6.107a16.516,16.516,0,0,0,2.7-10.337c-.164-4.4-1.134-7.3-4.083-11.473s-9.321-7.523-12.426-8.188a35.346,35.346,0,0,0-8.773-1ZM22.379,16.954V-5.952l12.245.037c3.771,0,5.358.2,7.881,1.108A9.685,9.685,0,0,1,48.9,3.349c.476,4.7-.25,7.39-2.949,10.442s-8.859,3.163-10.559,3.163Z" transform="translate(105 238.243)" fill="#fff"/>
      <path id="Q" d="M61.994,5.912A15.3,15.3,0,0,0,64.949,0a30.536,30.536,0,0,0,1.6-14.629c-.874-7.74-2.734-11.178-6.064-15.373s-6.977-5.331-9.713-6.847-12.583-2.229-17.819-.191-7.824,4.088-10.292,7.28a24.3,24.3,0,0,0-5.79,13.186c-1.1,7.133,0,12.734,1.447,16.072S20.165,4.873,23.913,8.5s5.461,5.3,11.965,6.9a25.639,25.639,0,0,0,13.843-.7L40.1,3.443l11.6-9.568ZM60.765,27.177a44.4,44.4,0,0,1-19.6,4.3A50.879,50.879,0,0,1,22.844,27.7,35.05,35.05,0,0,1,10.59,19,48.776,48.776,0,0,1,1.854,6.3a40.106,40.106,0,0,1-3.118-16.47A49.475,49.475,0,0,1,1.4-26.637,36.1,36.1,0,0,1,9.049-39.889c3.4-3.517,4.232-4.83,12.413-9.382s16.048-4.573,22.111-4.573A41.132,41.132,0,0,1,60.235-50.3,45.651,45.651,0,0,1,73.974-39.889a39.921,39.921,0,0,1,8.037,13.14,48.667,48.667,0,0,1,2.513,16.334A49.01,49.01,0,0,1,81.211,5.912c-1.774,4.953-4.93,9.043-8.066,12.642L84.434,31.848l-11.391,9.48Z" transform="translate(249.497 240.007)" fill="#fff"/>
      <path id="S" d="M14.357,6.671.288,14.856a32.407,32.407,0,0,0,8.072,9.938,29.786,29.786,0,0,0,12.19,6.054A47.7,47.7,0,0,0,32.958,32.24c5.4,0,10.061-.719,14.731-3.226a24.78,24.78,0,0,0,10.52-11.181c2.054-4.469,2.782-14.3-.568-20.434s-8.1-9.27-12.275-11.806-7.02-3.511-11.883-5.555a58.9,58.9,0,0,1-7.078-3.6c-1.737-.813-4.148-3.361-4.091-6.021a8.64,8.64,0,0,1,1.4-5.1,7.364,7.364,0,0,1,3.631-2.575c1.225-.327,5.689-1.522,9.324,1.223a14.238,14.238,0,0,1,4.714,5.614l13.5-8.564s-4.673-7.258-8.684-9.774a23.844,23.844,0,0,0-10.642-3.654,28.345,28.345,0,0,0-12.345.528c-5.122,1.293-6.882,2.567-8.859,4.147a20.187,20.187,0,0,0-6.579,8.015c-2.28,4.7-2.325,6.543-2.325,10.609a22.506,22.506,0,0,0,2.325,9.992,25.165,25.165,0,0,0,4.469,6.44,33.939,33.939,0,0,0,7.078,4.92,90.618,90.618,0,0,0,9.464,4.8C33.554-.738,37.2.523,40.258,3.167s2.1,6.814,1.623,8.507-4.14,4.281-5.868,4.824a23.049,23.049,0,0,1-8.153.475,20.455,20.455,0,0,1-8.55-3.946A28.746,28.746,0,0,1,14.357,6.671Z" transform="translate(177.943 239)" fill="#fff"/>
    </g>
  </g>
</svg>
